<svg width="32" height="32" viewBox="0 0 32 32" fill="none" xmlns="http://www.w3.org/2000/svg">
  <path d="M16 2C12.5 2 9.5 4.5 8.5 8C7 8.5 6 10 6 12C6 13 6.5 14 7.5 14.5C7 15.5 7 16.5 7.5 17.5C8 18.5 9 19 10 19C10.5 20 11.5 21 13 21.5C14 22 15 22 16 22C17 22 18 22 19 21.5C20.5 21 21.5 20 22 19C23 19 24 18.5 24.5 17.5C25 16.5 25 15.5 24.5 14.5C25.5 14 26 13 26 12C26 10 25 8.5 23.5 8C22.5 4.5 19.5 2 16 2Z" fill="#2563eb"/>
  <path d="M12 10C12.5523 10 13 9.55228 13 9C13 8.44772 12.5523 8 12 8C11.4477 8 11 8.44772 11 9C11 9.55228 11.4477 10 12 10Z" fill="white"/>
  <path d="M20 10C20.5523 10 21 9.55228 21 9C21 8.44772 20.5523 8 20 8C19.4477 8 19 8.44772 19 9C19 9.55228 19.4477 10 20 10Z" fill="white"/>
  <path d="M16 14C17.1046 14 18 13.1046 18 12C18 10.8954 17.1046 10 16 10C14.8954 10 14 10.8954 14 12C14 13.1046 14.8954 14 16 14Z" fill="white"/>
  <path d="M10 16C10.5523 16 11 15.5523 11 15C11 14.4477 10.5523 14 10 14C9.44772 14 9 14.4477 9 15C9 15.5523 9.44772 16 10 16Z" fill="white"/>
  <path d="M22 16C22.5523 16 23 15.5523 23 15C23 14.4477 22.5523 14 22 14C21.4477 14 21 14.4477 21 15C21 15.5523 21.4477 16 22 16Z" fill="white"/>
  <path d="M16 18C17.1046 18 18 17.1046 18 16C18 14.8954 17.1046 14 16 14C14.8954 14 14 14.8954 14 16C14 17.1046 14.8954 18 16 18Z" fill="white"/>
</svg>